<svg width="70" height="54" viewBox="0 0 70 54" fill="none" xmlns="http://www.w3.org/2000/svg">
<path d="M65.8959 0.756364C59.2361 1.12082 45.9991 2.44737 37.8274 7.27079C37.2635 7.6036 36.9439 8.19539 36.9439 8.81414V51.4549C36.9439 52.8084 38.4788 53.6639 39.7731 53.0358C48.1805 48.9553 60.3396 47.8421 66.3517 47.5374C68.4043 47.4331 70 45.8464 70 43.9444V4.354C70.0012 2.27862 68.1345 0.63449 65.8959 0.756364ZM32.1726 7.27079C24.0022 2.44737 10.7651 1.12199 4.10528 0.756364C1.8667 0.63449 0 2.27862 0 4.354V43.9456C0 45.8487 1.59569 47.4354 3.64833 47.5386C9.66284 47.8432 21.828 48.9577 30.2354 53.0405C31.5261 53.6674 33.0561 52.8131 33.0561 51.4631V8.79304C33.0561 8.17312 32.7377 7.60477 32.1726 7.27079Z" fill="#D7EDE8"/>
</svg>
